<?xml version="1.0" encoding="utf-8"?>
<!-- Generator: Adobe Illustrator 21.1.0, SVG Export Plug-In . SVG Version: 6.00 Build 0)  -->
<svg version="1.1" id="Layer_1" xmlns="http://www.w3.org/2000/svg" xmlns:xlink="http://www.w3.org/1999/xlink" x="0px" y="0px"
	 viewBox="0 0 62 61" style="enable-background:new 0 0 62 61;" xml:space="preserve">
<style type="text/css">
	.st0{fill:#E5D400;}
	.st1{filter:url(#Adobe_OpacityMaskFilter);}
	.st2{fill:#FFFFFF;}
	.st3{mask:url(#mask-2);fill:#E5D400;}
</style>
<title>Group 13</title>
<desc>Created with Sketch.</desc>
<g id="Page-1">
	<g id="Home-3" transform="translate(-84.000000, -895.000000)">
		<g id="Group" transform="translate(84.000000, 893.000000)">
			<g id="Group-13" transform="translate(0.000000, 2.000000)">
				<path id="Fill-1" class="st0" d="M43.8,30.4H18.3c-0.7,0-1.3,0.6-1.3,1.3s0.6,1.3,1.3,1.3h25.5c0.7,0,1.3-0.6,1.3-1.3
					S44.6,30.4,43.8,30.4"/>
				<path id="Fill-3" class="st0" d="M20.5,58.3l0.1-0.2c1.3-2.6,2.4-4.9,5.8-4.9h9.3c3.5,0,4.6,2.3,5.8,4.9l0.1,0.1H20.5z
					 M43.8,57.1c-1.3-2.8-3-6.4-8.1-6.4h-3.4v-3.8c0-0.7-0.6-1.3-1.3-1.3c-0.7,0-1.3,0.6-1.3,1.3v3.8h-3.4c-5,0-6.7,3.5-8.1,6.3
					l-0.5,1c-0.1,0.2-0.1,0.4-0.1,0.6c0,1.2,1.1,2.3,2.4,2.3h22c1.3,0,2.4-1,2.4-2.2c0-0.2,0-0.4-0.1-0.6L43.8,57.1z"/>
				<g id="Group-7" transform="translate(0.446739, 0.000000)">
					<g id="Clip-6">
					</g>
					<defs>
						<filter id="Adobe_OpacityMaskFilter" filterUnits="userSpaceOnUse" x="0" y="0" width="61.3" height="43.1">
							<feColorMatrix  type="matrix" values="1 0 0 0 0  0 1 0 0 0  0 0 1 0 0  0 0 0 1 0"/>
						</filter>
					</defs>
					<mask maskUnits="userSpaceOnUse" x="0" y="0" width="61.3" height="43.1" id="mask-2">
						<g class="st1">
							<polygon id="path-1" class="st2" points="61.3,0 0,0 0,21.5 0,43.1 61.3,43.1 61.3,21.5 							"/>
						</g>
					</mask>
					<path id="Fill-5" class="st3" d="M58.7,37.9c0,1.6-1.1,2.6-2.8,2.6H5.4c-1.7,0-2.8-1-2.8-2.6V5.5c0-1.7,1.3-3,2.8-3h50.5
						c1.6,0,2.8,1.3,2.8,3V37.9z M55.9,0H5.4C2.4,0,0,2.5,0,5.5v32.4c0,3,2.3,5.1,5.4,5.1h50.5c3.1,0,5.4-2.2,5.4-5.1V5.5
						C61.3,2.5,58.9,0,55.9,0L55.9,0z"/>
				</g>
				<path id="Fill-8" class="st0" d="M25.7,12.4c1.4-1.4,3.4-2.2,5.4-2.2c2,0,4,0.8,5.4,2.2c3,3,3,7.8,0,10.8
					c-2.9,2.9-7.9,2.9-10.8,0c-1.4-1.4-2.2-3.3-2.2-5.4S24.2,13.9,25.7,12.4 M31.1,28c2.7,0,5.3-1.1,7.2-3c4-4,4-10.4,0-14.3
					c-1.9-1.9-4.5-3-7.2-3c-2.7,0-5.3,1.1-7.2,3s-3,4.5-3,7.2s1.1,5.3,3,7.2C25.8,26.9,28.4,28,31.1,28"/>
				<path id="Fill-10" class="st0" d="M28.7,22.1C28.7,22.1,28.7,22.1,28.7,22.1C28.7,22.2,28.7,22.2,28.7,22.1
					c0.1,0.1,0.2,0.2,0.3,0.2c0,0,0.1,0.1,0.1,0.1c0.2,0.1,0.3,0.1,0.5,0.1c0.2,0,0.3,0,0.5-0.1c0.1,0,0.1-0.1,0.1-0.1
					c0.1,0,0.2-0.1,0.2-0.2c0,0,0,0,0,0c0,0,0,0,0,0l5.5-5.8c0.5-0.5,0.5-1.3-0.1-1.8c-0.5-0.5-1.3-0.5-1.8,0.1l-4.5,4.8L28,17.7
					c-0.5-0.5-1.3-0.5-1.8-0.1c-0.5,0.5-0.5,1.3-0.1,1.8L28.7,22.1z"/>
			</g>
		</g>
	</g>
</g>
</svg>
