<?xml version="1.0" encoding="utf-8"?>
<!-- Generator: Adobe Illustrator 21.1.0, SVG Export Plug-In . SVG Version: 6.00 Build 0)  -->
<svg version="1.1" id="Layer_1" xmlns="http://www.w3.org/2000/svg" xmlns:xlink="http://www.w3.org/1999/xlink" x="0px" y="0px"
	 viewBox="0 0 55 62" style="enable-background:new 0 0 55 62;" xml:space="preserve">
<style type="text/css">
	.st0{fill:#E5C400;}
	.st1{filter:url(#Adobe_OpacityMaskFilter);}
	.st2{fill:#FFFFFF;}
	.st3{mask:url(#mask-2);fill:#E5C400;}
</style>
<title>Group 10</title>
<desc>Created with Sketch.</desc>
<g id="Page-1">
	<g id="Home-3" transform="translate(-280.000000, -894.000000)">
		<g id="Group" transform="translate(84.000000, 893.000000)">
			<g id="Group-10" transform="translate(196.000000, 1.000000)">
				<path id="Fill-1" class="st0" d="M28.5,58.9c-1.8,0-3.4-1.5-3.4-3.3s1.5-3.3,3.4-3.3s3.4,1.5,3.4,3.3S30.4,58.9,28.5,58.9
					 M16.9,30.3c0-2.8,2.3-5.1,5.1-5.1c2.8,0,5.2,2.3,5.2,5.1c0,2.8-2.3,5.1-5.2,5.1C19.3,35.4,16.9,33.1,16.9,30.3 M45.3,2.7
					c1.8,0,3.4,1.5,3.4,3.3s-1.5,3.3-3.4,3.3c-0.9,0-1.7-0.4-2.3-0.9c0,0-0.1-0.1-0.1-0.1c0,0-0.1,0-0.1-0.1
					c-0.6-0.6-0.9-1.4-0.9-2.3C41.9,4.2,43.4,2.7,45.3,2.7 M4.5,42.4c-1,0-1.9-0.8-1.9-1.9c0-1,0.8-1.9,1.9-1.9c1,0,1.9,0.8,1.9,1.9
					C6.4,41.6,5.5,42.4,4.5,42.4 M28.5,49.6c-0.1,0-0.1,0-0.2,0l-3.1-12.3c1.1-0.5,2.1-1.2,2.8-2.2l1.3,0.7c0.2,0.1,0.4,0.2,0.6,0.2
					c0.5,0,0.9-0.2,1.1-0.7c0.4-0.6,0.1-1.4-0.5-1.8l-1.2-0.7c0.3-0.8,0.5-1.7,0.5-2.6c0-1.7-0.6-3.3-1.6-4.6l13.8-14.6
					c0.9,0.6,2,0.9,3.1,0.9c3.3,0,6-2.7,6-6c0-3.3-2.7-6-6-6s-6,2.7-6,6c0,1.2,0.4,2.3,1,3.2L26.4,23.9c-1.2-0.8-2.7-1.3-4.3-1.3
					c-0.9,0-1.7,0.2-2.5,0.4l-0.7-1.3c-0.3-0.6-1.1-0.9-1.8-0.5s-0.9,1.1-0.5,1.8l0.7,1.3c-1.8,1.4-3,3.6-3,6.1
					c0,0.9,0.2,1.8,0.5,2.6l-3.6,2.2c0,0,0,0.1-0.1,0.1c0,0-0.1,0-0.1,0l-3.5,2.1C6.8,36.5,5.7,36,4.5,36C2,36,0,38,0,40.5
					C0,43,2,45,4.5,45S9,43,9,40.5c0-0.3,0-0.7-0.1-1l3.5-2.1c0,0,0.1-0.1,0.1-0.1c0,0,0.1,0,0.1,0l3.5-2.1c1.4,1.7,3.6,2.9,6,2.9
					c0.2,0,0.4,0,0.6-0.1l3.1,12.3c-1.9,1-3.3,3-3.3,5.3c0,3.3,2.7,6,6,6c3.3,0,6-2.7,6-6C34.5,52.3,31.8,49.6,28.5,49.6"/>
				<g id="Group-5" transform="translate(43.739130, 41.712870)">
					<g id="Clip-4">
					</g>
					<defs>
						<filter id="Adobe_OpacityMaskFilter" filterUnits="userSpaceOnUse" x="0.1" y="0.1" width="10.9" height="9">
							<feColorMatrix  type="matrix" values="1 0 0 0 0  0 1 0 0 0  0 0 1 0 0  0 0 0 1 0"/>
						</filter>
					</defs>
					<mask maskUnits="userSpaceOnUse" x="0.1" y="0.1" width="10.9" height="9" id="mask-2">
						<g class="st1">
							<polygon id="path-1" class="st2" points="11,9.1 11,0.1 0.1,0.1 0.1,9.1 							"/>
						</g>
					</mask>
					<path id="Fill-3" class="st3" d="M6.5,6.5c-1,0-1.9-0.8-1.9-1.9s0.8-1.9,1.9-1.9s1.9,0.8,1.9,1.9S7.5,6.5,6.5,6.5 M6.5,0.1
						c-1.2,0-2.3,0.5-3.1,1.3L2.1,0.7C1.4,0.3,0.6,0.5,0.3,1.1c-0.4,0.6-0.1,1.4,0.5,1.8l1.3,0.7C2,4,2,4.3,2,4.6
						c0,2.5,2,4.5,4.5,4.5s4.5-2,4.5-4.5S8.9,0.1,6.5,0.1"/>
				</g>
				<path id="Fill-6" class="st0" d="M8.2,2.6c1,0,1.9,0.8,1.9,1.9c0,0.8-0.5,1.4-1.1,1.7c0,0,0,0,0,0c0,0,0,0,0,0
					C8.7,6.3,8.5,6.4,8.2,6.4c-1,0-1.9-0.8-1.9-1.9S7.2,2.6,8.2,2.6 M8.2,9c0.3,0,0.5,0,0.7-0.1l0.7,1.4c0.2,0.4,0.7,0.7,1.1,0.7
					c0.2,0,0.4,0,0.6-0.2c0.6-0.3,0.9-1.1,0.5-1.8l-0.7-1.3c0.9-0.8,1.4-2,1.4-3.3c0-2.5-2-4.5-4.5-4.5S3.7,2,3.7,4.5
					C3.7,7,5.7,9,8.2,9"/>
				<path id="Fill-8" class="st0" d="M12,14.5l2.3,4.2c0.2,0.4,0.7,0.7,1.1,0.7c0.2,0,0.4,0,0.6-0.2c0.6-0.3,0.9-1.1,0.5-1.8
					l-2.3-4.2c-0.3-0.6-1.1-0.9-1.8-0.5C11.9,13.1,11.7,13.9,12,14.5"/>
				<path id="Fill-10" class="st0" d="M40.7,39.5l-5.1-2.9c-0.6-0.4-1.4-0.1-1.8,0.5c-0.4,0.6-0.1,1.4,0.5,1.8l5.1,2.9
					c0.2,0.1,0.4,0.2,0.6,0.2c0.5,0,0.9-0.2,1.1-0.7C41.6,40.6,41.4,39.8,40.7,39.5"/>
			</g>
		</g>
	</g>
</g>
</svg>
