<?xml version="1.0" encoding="utf-8"?>
<!-- Generator: Adobe Illustrator 21.1.0, SVG Export Plug-In . SVG Version: 6.00 Build 0)  -->
<svg version="1.1" id="Layer_1" xmlns="http://www.w3.org/2000/svg" xmlns:xlink="http://www.w3.org/1999/xlink" x="0px" y="0px"
	 viewBox="0 0 63 64" style="enable-background:new 0 0 63 64;" xml:space="preserve">
<style type="text/css">
	.st0{fill:#E5C900;}
</style>
<title>Group 8</title>
<desc>Created with Sketch.</desc>
<g id="Page-1">
	<g id="Home-3" transform="translate(-468.000000, -893.000000)">
		<g id="Group" transform="translate(84.000000, 893.000000)">
			<g id="Group-8" transform="translate(384.000000, 0.000000)">
				<path id="Fill-1" class="st0" d="M26.3,36v21.2c0,0.7,0.6,1.3,1.3,1.3s1.3-0.6,1.3-1.3V36c0-0.7-0.6-1.3-1.3-1.3
					S26.3,35.3,26.3,36"/>
				<path id="Fill-3" class="st0" d="M21,36v21.2c0,0.7,0.6,1.3,1.3,1.3c0.7,0,1.3-0.6,1.3-1.3V36c0-0.7-0.6-1.3-1.3-1.3
					C21.6,34.7,21,35.3,21,36"/>
				<path id="Fill-5" class="st0" d="M13.1,36v21.2c0,0.7,0.6,1.3,1.3,1.3c0.7,0,1.3-0.6,1.3-1.3V36c0-0.7-0.6-1.3-1.3-1.3
					C13.7,34.7,13.1,35.3,13.1,36"/>
				<path id="Fill-7" class="st0" d="M7.8,36v21.2c0,0.7,0.6,1.3,1.3,1.3c0.7,0,1.3-0.6,1.3-1.3V36c0-0.7-0.6-1.3-1.3-1.3
					C8.4,34.7,7.8,35.3,7.8,36"/>
				<path id="Fill-9" class="st0" d="M39.5,36v21.2c0,0.7,0.6,1.3,1.3,1.3c0.7,0,1.3-0.6,1.3-1.3V36c0-0.7-0.6-1.3-1.3-1.3
					C40.1,34.7,39.5,35.3,39.5,36"/>
				<path id="Fill-11" class="st0" d="M34.2,36v21.2c0,0.7,0.6,1.3,1.3,1.3c0.7,0,1.3-0.6,1.3-1.3V36c0-0.7-0.6-1.3-1.3-1.3
					C34.8,34.7,34.2,35.3,34.2,36"/>
				<path id="Fill-13" class="st0" d="M52.7,36v21.2c0,0.7,0.6,1.3,1.3,1.3c0.7,0,1.3-0.6,1.3-1.3V36c0-0.7-0.6-1.3-1.3-1.3
					C53.3,34.7,52.7,35.3,52.7,36"/>
				<path id="Fill-15" class="st0" d="M47.4,36v21.2c0,0.7,0.6,1.3,1.3,1.3c0.7,0,1.3-0.6,1.3-1.3V36c0-0.7-0.6-1.3-1.3-1.3
					C48,34.7,47.4,35.3,47.4,36"/>
				<path id="Fill-17" class="st0" d="M61.7,61.3H1.5c-0.7,0-1.3,0.6-1.3,1.3c0,0.7,0.6,1.3,1.3,1.3h60.1c0.7,0,1.3-0.6,1.3-1.3
					C63,61.9,62.4,61.3,61.7,61.3"/>
				<path id="Fill-20" class="st0" d="M1.5,32h60.1c0.7,0,1.3-0.6,1.3-1.3c0-0.7-0.6-1.3-1.3-1.3H1.5c-0.7,0-1.3,0.6-1.3,1.3
					C0.2,31.4,0.8,32,1.5,32"/>
				<path id="Fill-22" class="st0" d="M20,26.4c0.7,0,1.3-0.6,1.3-1.3c0-5.2,4.6-9.4,10.2-9.4c5.6,0,10.2,4.2,10.2,9.4
					c0,0.7,0.6,1.3,1.3,1.3c0.7,0,1.3-0.6,1.3-1.3c0-6.2-5.1-11.3-11.6-12V2.7H39c0.7,0,1.3-0.6,1.3-1.3C40.3,0.6,39.7,0,39,0h-7.4
					c-0.7,0-1.3,0.6-1.3,1.3v11.8c-6.5,0.6-11.6,5.7-11.6,12C18.7,25.9,19.3,26.4,20,26.4"/>
			</g>
		</g>
	</g>
</g>
</svg>
