<?xml version="1.0" encoding="utf-8"?>
<!-- Generator: Adobe Illustrator 21.1.0, SVG Export Plug-In . SVG Version: 6.00 Build 0)  -->
<svg version="1.1" id="Layer_1" xmlns="http://www.w3.org/2000/svg" xmlns:xlink="http://www.w3.org/1999/xlink" x="0px" y="0px"
	 viewBox="0 0 58 61" style="enable-background:new 0 0 58 61;" xml:space="preserve">
<style type="text/css">
	.st0{fill:#E5B900;}
</style>
<title>Group 11</title>
<desc>Created with Sketch.</desc>
<g id="Page-1">
	<g id="Home-3" transform="translate(-869.000000, -895.000000)">
		<g id="Group" transform="translate(84.000000, 893.000000)">
			<g id="Group-11" transform="translate(785.000000, 2.000000)">
				<path id="Fill-1" class="st0" d="M9,37.1c-0.7,0-1.3,0.6-1.3,1.3v20.8c0,0.7,0.6,1.3,1.3,1.3s1.3-0.6,1.3-1.3V38.4
					C10.3,37.7,9.7,37.1,9,37.1"/>
				<path id="Fill-3" class="st0" d="M9,5.6c1.2,0,2.2,1,2.2,2.2c0,1.4-1.2,3.3-2.2,3.3S6.8,9.3,6.8,7.8C6.8,6.6,7.8,5.6,9,5.6
					 M9,13.7c2.9,0,4.8-3.5,4.8-5.9C13.8,5.2,11.6,3,9,3S4.2,5.2,4.2,7.8C4.2,10.2,6.1,13.7,9,13.7"/>
				<path id="Fill-5" class="st0" d="M16.4,14.6c-0.1-0.1-0.3-0.2-0.5-0.3c-0.2-0.1-0.5-0.1-1.8-0.1l-0.7,0
					c-1.1-0.1-2.2,0.6-2.7,1.6c-0.3,0.6-1.1,0.8-1.6,0.8c-0.6,0-1.3-0.2-1.6-0.8c-0.6-1.1-1.5-1.7-2.7-1.6l-0.7,0
					c-1.3,0.1-1.6,0.1-1.8,0.1c-0.2,0-0.3,0.1-0.5,0.3C1,15-0.5,16.3,0.2,34.3c0,0.4,0.2,0.8,0.5,1c0.4,0.3,0.8,0.4,1.2,0.4
					l1.3,23.6c0,0.7,0.7,1.3,1.4,1.2c0.7,0,1.3-0.7,1.2-1.4L4.4,34.5c0-0.4-0.2-0.8-0.5-1.1c-0.4-0.3-0.8-0.4-1.2-0.4
					C2.3,21.1,3,17.6,3.2,16.8c0.3,0,0.6,0,0.8,0l0.7,0C4.9,16.8,5,16.8,5,17c0.7,1.4,2.2,2.2,4,2.2s3.3-0.9,4-2.2
					c0.1-0.1,0.2-0.2,0.2-0.2l0.7,0c0.3,0,0.5,0,0.8,0c0.3,1,0.9,4.6,0.5,16.3c-0.4,0-0.8,0.1-1.2,0.4c-0.3,0.2-0.5,0.7-0.5,1
					l-1.4,24.6c0,0.7,0.5,1.3,1.2,1.4c0,0,0,0,0.1,0c0.7,0,1.3-0.5,1.3-1.2l1.3-23.6c0.4,0,0.8-0.1,1.2-0.4c0.3-0.2,0.5-0.7,0.5-1
					C18.5,16.3,16.9,15,16.4,14.6"/>
				<path id="Fill-8" class="st0" d="M43.8,16.5c-0.2,0.3-2.1,2.8-2.6,5.2h-0.9v-7c0-0.7-0.6-1.3-1.3-1.3c-0.7,0-1.3,0.6-1.3,1.3v7
					h-0.9c-0.5-2.2-2.1-4.4-2.6-5c0-0.1-0.1-0.1-0.1-0.2c-1.6-1.8-2.6-4.3-2.6-6.5c0-4,3.3-7.3,7.4-7.3c4.1,0,7.5,3.3,7.5,7.3
					C46.4,12.1,45.4,14.6,43.8,16.5L43.8,16.5z M41.5,28.1h-0.3c-0.3,0-0.7,0.1-0.9,0.4l-0.9,0.9h-0.9l-0.9-0.9
					c-0.2-0.2-0.6-0.4-0.9-0.4h-0.3v-3.8h5.1V28.1z M39,0c-5.5,0-10.1,4.4-10.1,9.9c0,2.8,1.2,5.8,3.1,8.1c0,0,0,0,0,0.1
					c0.5,0.6,1.7,2.4,2.1,3.9c-0.2,0.2-0.4,0.6-0.4,0.9v6.4c0,0.7,0.6,1.3,1.3,1.3h1.1l0.9,0.9c0.2,0.2,0.6,0.4,0.9,0.4h2
					c0.3,0,0.7-0.1,0.9-0.4l0.9-0.9h1.1c0.7,0,1.3-0.6,1.3-1.3v-6.4c0-0.3-0.1-0.6-0.4-0.9c0.4-1.4,1.4-3.1,2-3.9
					c2-2.3,3.2-5.4,3.2-8.2C49,4.4,44.5,0,39,0L39,0z"/>
				<path id="Fill-10" class="st0" d="M26.4,10c0-0.7-0.6-1.3-1.3-1.3h-3.6c-0.7,0-1.3,0.6-1.3,1.3s0.6,1.3,1.3,1.3h3.6
					C25.8,11.3,26.4,10.7,26.4,10"/>
				<path id="Fill-12" class="st0" d="M24.5,0.8c-0.5-0.5-1.3-0.5-1.8,0c-0.5,0.5-0.5,1.3,0,1.8l2.9,2.8c0.3,0.2,0.6,0.4,0.9,0.4
					c0.3,0,0.7-0.1,0.9-0.4C28,5,28,4.1,27.5,3.6L24.5,0.8z"/>
				<path id="Fill-14" class="st0" d="M25.6,14.4l-2.9,2.8c-0.5,0.5-0.5,1.3,0,1.8c0.3,0.3,0.6,0.4,0.9,0.4c0.3,0,0.6-0.1,0.9-0.4
					l2.9-2.8c0.5-0.5,0.5-1.3,0-1.8C27,14,26.2,13.9,25.6,14.4"/>
				<path id="Fill-16" class="st0" d="M56.6,8.7h-3.6c-0.7,0-1.3,0.6-1.3,1.3s0.6,1.3,1.3,1.3h3.6c0.7,0,1.3-0.6,1.3-1.3
					S57.3,8.7,56.6,8.7"/>
				<path id="Fill-18" class="st0" d="M51.5,5.9c0.3,0,0.6-0.1,0.9-0.4l2.9-2.8c0.5-0.5,0.5-1.3,0-1.8c-0.5-0.5-1.3-0.5-1.8,0
					l-2.9,2.8c-0.5,0.5-0.5,1.3,0,1.8C50.8,5.7,51.1,5.9,51.5,5.9"/>
				<path id="Fill-20" class="st0" d="M52.4,14.4c-0.5-0.5-1.3-0.5-1.8,0c-0.5,0.5-0.5,1.3,0,1.8l2.9,2.8c0.3,0.2,0.6,0.4,0.9,0.4
					c0.3,0,0.7-0.1,0.9-0.4c0.5-0.5,0.5-1.3,0-1.8L52.4,14.4z"/>
				<path id="Fill-22" class="st0" d="M41.8,8.5L40.4,9l-0.6-0.4c-0.4-0.2-0.9-0.2-1.3,0L37.8,9l-1.3-0.5c-0.7-0.2-1.4,0.1-1.7,0.8
					c-0.2,0.7,0.1,1.4,0.8,1.7l1.9,0.7c0.1,0.1,0.3,0.1,0.4,0.1c0.2,0,0.5-0.1,0.7-0.2l0.5-0.3l0.5,0.3c0.3,0.2,0.7,0.2,1.1,0.1
					l2-0.7c0.7-0.2,1-1,0.8-1.7C43.2,8.6,42.5,8.3,41.8,8.5"/>
			</g>
		</g>
	</g>
</g>
</svg>
