<?xml version="1.0" encoding="utf-8"?>
<!-- Generator: Adobe Illustrator 21.1.0, SVG Export Plug-In . SVG Version: 6.00 Build 0)  -->
<svg version="1.1" id="Layer_1" xmlns="http://www.w3.org/2000/svg" xmlns:xlink="http://www.w3.org/1999/xlink" x="0px" y="0px"
	 viewBox="0 0 69 53" style="enable-background:new 0 0 69 53;" xml:space="preserve">
<style type="text/css">
	.st0{fill:#FFFFFF;}
	.st1{fill:#E5DF00;}
	.st2{filter:url(#Adobe_OpacityMaskFilter);}
	.st3{mask:url(#mask-4);fill:#E5DF00;}
	.st4{filter:url(#Adobe_OpacityMaskFilter_1_);}
	.st5{mask:url(#mask-6);fill:#E5DF00;}
</style>
<g>
	<polygon id="path-1" class="st0" points="0,53 68.3,53 68.3,-0.1 0,-0.1 0,35.7 24.4,35.7 24.4,-0.1 0,-0.1 0,35.7 	"/>
</g>
<title>Group 12</title>
<desc>Created with Sketch.</desc>
<g id="Page-1">
	<g id="Home-3" transform="translate(-667.000000, -899.000000)">
		<g id="Group" transform="translate(84.000000, 893.000000)">
			<g id="Group-12" transform="translate(581.000000, 5.000000)">
				<g id="Group-3" transform="translate(0.973932, 0.735398)">
					<g id="Clip-2">
					</g>
				</g>
				<path id="Fill-4" class="st1" d="M11.8,12.3c0-1.3,1.1-2.4,2.4-2.4c1.3,0,2.4,1.1,2.4,2.4s-1.1,2.4-2.4,2.4
					C12.9,14.6,11.8,13.6,11.8,12.3 M19.5,12.3c0-2.9-2.4-5.3-5.3-5.3c-2.9,0-5.3,2.4-5.3,5.3s2.4,5.3,5.3,5.3
					C17.1,17.5,19.5,15.2,19.5,12.3"/>
				<g id="Group-8" transform="translate(45.740224, 17.182551)">
					<g id="Clip-7">
					</g>
					<defs>
						<filter id="Adobe_OpacityMaskFilter" filterUnits="userSpaceOnUse" x="0.2" y="1" width="24.4" height="35.8">
							<feColorMatrix  type="matrix" values="1 0 0 0 0  0 1 0 0 0  0 0 1 0 0  0 0 0 1 0"/>
						</filter>
					</defs>
					<mask maskUnits="userSpaceOnUse" x="0.2" y="1" width="24.4" height="35.8" id="mask-4">
						<g class="st2">
							<polygon id="path-3" class="st0" points="0.2,36.8 24.6,36.8 24.6,1 0.2,1 							"/>
						</g>
					</mask>
					<path id="Fill-6" class="st3" d="M12.4,32.7C9,27.3,3.1,17.1,3.1,13.2c0-5.1,4.2-9.3,9.3-9.3c5.1,0,9.3,4.2,9.3,9.3
						C21.7,17.1,15.8,27.3,12.4,32.7 M12.4,1C5.6,1,0.2,6.5,0.2,13.2c0,6.2,9.9,21.3,11,23c0.3,0.4,0.7,0.7,1.2,0.7s0.9-0.2,1.2-0.7
						c1.1-1.7,11-16.8,11-23C24.6,6.5,19.1,1,12.4,1"/>
				</g>
				<g id="Group-8_1_" transform="translate(1.973932, 0.000000)">
					<g id="Clip-7_1_">
					</g>
					<defs>
						<filter id="Adobe_OpacityMaskFilter_1_" filterUnits="userSpaceOnUse" x="0.2" y="1" width="24.4" height="35.8">
							<feColorMatrix  type="matrix" values="1 0 0 0 0  0 1 0 0 0  0 0 1 0 0  0 0 0 1 0"/>
						</filter>
					</defs>
					<mask maskUnits="userSpaceOnUse" x="0.2" y="1" width="24.4" height="35.8" id="mask-6">
						<g class="st4">
							<polygon id="path-5" class="st0" points="0.2,36.8 24.6,36.8 24.6,1 0.2,1 							"/>
						</g>
					</mask>
					<path id="Fill-6_1_" class="st5" d="M12.4,32.7C9,27.3,3.1,17.1,3.1,13.2c0-5.1,4.2-9.3,9.3-9.3c5.1,0,9.3,4.2,9.3,9.3
						C21.7,17.1,15.8,27.3,12.4,32.7 M12.4,1C5.6,1,0.2,6.5,0.2,13.2c0,6.2,9.9,21.3,11,23c0.3,0.4,0.7,0.7,1.2,0.7s0.9-0.2,1.2-0.7
						c1.1-1.7,11-16.8,11-23C24.6,6.5,19.1,1,12.4,1"/>
				</g>
				<path id="Fill-9" class="st1" d="M58.1,31.9c-1.3,0-2.4-1.1-2.4-2.4c0-1.3,1.1-2.4,2.4-2.4c1.3,0,2.4,1.1,2.4,2.4
					C60.5,30.8,59.4,31.9,58.1,31.9 M58.1,24.3c-2.9,0-5.3,2.4-5.3,5.3c0,2.9,2.4,5.3,5.3,5.3c2.9,0,5.3-2.4,5.3-5.3
					C63.4,26.6,61,24.3,58.1,24.3"/>
				<path id="Fill-11" class="st1" d="M51,50.2l-2.8-0.8c-0.8-0.2-1.6,0.2-1.8,1c-0.2,0.8,0.2,1.6,1,1.8l2.8,0.8
					c0.1,0,0.3,0.1,0.4,0.1c0.6,0,1.2-0.4,1.4-1C52.2,51.2,51.8,50.4,51,50.2"/>
				<path id="Fill-13" class="st1" d="M28.6,43.7l-2.8-0.8c-0.8-0.2-1.6,0.2-1.8,1c-0.2,0.8,0.2,1.6,1,1.8l2.8,0.8
					c0.1,0,0.3,0.1,0.4,0.1c0.6,0,1.2-0.4,1.4-1C29.8,44.7,29.4,43.9,28.6,43.7"/>
				<path id="Fill-15" class="st1" d="M39.8,46.9L37,46.1c-0.8-0.2-1.6,0.2-1.8,1c-0.2,0.8,0.2,1.6,1,1.8l2.8,0.8
					c0.1,0,0.3,0.1,0.4,0.1c0.6,0,1.2-0.4,1.4-1C41,48,40.6,47.2,39.8,46.9"/>
				<path id="Fill-17" class="st1" d="M17.4,40.4l-2.8-0.8c-0.8-0.2-1.6,0.2-1.8,1c-0.2,0.8,0.2,1.6,1,1.8l2.8,0.8
					c0.1,0,0.3,0.1,0.4,0.1c0.6,0,1.2-0.4,1.4-1C18.6,41.5,18.2,40.7,17.4,40.4"/>
			</g>
		</g>
	</g>
</g>
</svg>
